<svg width="188" height="217" viewBox="0 0 188 217" fill="none" xmlns="http://www.w3.org/2000/svg">
<path d="M7.44 186.85V199.12C7.44 200.26 7.7 201.14 8.22 201.76C8.76 202.38 9.57 202.69 10.65 202.69C11.73 202.69 12.54 202.38 13.08 201.76C13.64 201.12 13.92 200.24 13.92 199.12V186.85H19.8V199.12C19.8 201.06 19.39 202.72 18.57 204.1C17.75 205.46 16.63 206.49 15.21 207.19C13.81 207.87 12.25 208.21 10.53 208.21C8.81 208.21 7.27 207.87 5.91 207.19C4.57 206.49 3.51 205.46 2.73 204.1C1.97 202.74 1.59 201.08 1.59 199.12V186.85H7.44ZM32.1274 196.06H29.4874V208H23.5774V196.06H21.7474V191.17H23.5774V191.02C23.5774 188.86 24.2074 187.21 25.4674 186.07C26.7474 184.91 28.5774 184.33 30.9574 184.33C31.4374 184.33 31.8074 184.34 32.0674 184.36V189.37C31.9074 189.35 31.6874 189.34 31.4074 189.34C30.7674 189.34 30.2974 189.49 29.9974 189.79C29.6974 190.07 29.5274 190.53 29.4874 191.17H32.1274V196.06ZM40.1088 194.14C40.7688 193.18 41.5688 192.42 42.5088 191.86C43.4488 191.3 44.4588 191.02 45.5388 191.02V197.29H43.8888C42.6088 197.29 41.6588 197.54 41.0388 198.04C40.4188 198.54 40.1088 199.41 40.1088 200.65V208H34.2288V191.17H40.1088V194.14ZM46.6868 199.57C46.6868 197.83 46.9968 196.31 47.6168 195.01C48.2568 193.71 49.1168 192.71 50.1968 192.01C51.2968 191.31 52.5168 190.96 53.8568 190.96C55.0168 190.96 56.0168 191.19 56.8568 191.65C57.6968 192.11 58.3468 192.73 58.8068 193.51V191.17H64.6868V208H58.8068V205.66C58.3468 206.44 57.6868 207.06 56.8268 207.52C55.9868 207.98 54.9968 208.21 53.8568 208.21C52.5168 208.21 51.2968 207.86 50.1968 207.16C49.1168 206.46 48.2568 205.46 47.6168 204.16C46.9968 202.84 46.6868 201.31 46.6868 199.57ZM58.8068 199.57C58.8068 198.49 58.5068 197.64 57.9068 197.02C57.3268 196.4 56.6068 196.09 55.7468 196.09C54.8668 196.09 54.1368 196.4 53.5568 197.02C52.9768 197.62 52.6868 198.47 52.6868 199.57C52.6868 200.65 52.9768 201.51 53.5568 202.15C54.1368 202.77 54.8668 203.08 55.7468 203.08C56.6068 203.08 57.3268 202.77 57.9068 202.15C58.5068 201.53 58.8068 200.67 58.8068 199.57ZM98.4696 186.85V208H92.5896V196.33L88.5996 208H83.6796L79.6596 196.24V208H73.7796V186.85H80.8896L86.1996 200.59L91.3896 186.85H98.4696ZM100.857 199.57C100.857 197.83 101.167 196.31 101.787 195.01C102.427 193.71 103.287 192.71 104.367 192.01C105.467 191.31 106.687 190.96 108.027 190.96C109.187 190.96 110.187 191.19 111.027 191.65C111.867 192.11 112.517 192.73 112.977 193.51V191.17H118.857V208H112.977V205.66C112.517 206.44 111.857 207.06 110.997 207.52C110.157 207.98 109.167 208.21 108.027 208.21C106.687 208.21 105.467 207.86 104.367 207.16C103.287 206.46 102.427 205.46 101.787 204.16C101.167 202.84 100.857 201.31 100.857 199.57ZM112.977 199.57C112.977 198.49 112.677 197.64 112.077 197.02C111.497 196.4 110.777 196.09 109.917 196.09C109.037 196.09 108.307 196.4 107.727 197.02C107.147 197.62 106.857 198.47 106.857 199.57C106.857 200.65 107.147 201.51 107.727 202.15C108.307 202.77 109.037 203.08 109.917 203.08C110.777 203.08 111.497 202.77 112.077 202.15C112.677 201.53 112.977 200.67 112.977 199.57ZM133.217 191.02C135.157 191.02 136.697 191.67 137.837 192.97C138.977 194.25 139.547 195.99 139.547 198.19V208H133.667V198.97C133.667 198.01 133.417 197.26 132.917 196.72C132.417 196.16 131.747 195.88 130.907 195.88C130.027 195.88 129.337 196.16 128.837 196.72C128.337 197.26 128.087 198.01 128.087 198.97V208H122.207V191.17H128.087V193.57C128.607 192.81 129.307 192.2 130.187 191.74C131.067 191.26 132.077 191.02 133.217 191.02ZM158.854 199.39C158.854 199.85 158.824 200.31 158.764 200.77H147.634C147.694 201.69 147.944 202.38 148.384 202.84C148.844 203.28 149.424 203.5 150.124 203.5C151.104 203.5 151.804 203.06 152.224 202.18H158.494C158.234 203.34 157.724 204.38 156.964 205.3C156.224 206.2 155.284 206.91 154.144 207.43C153.004 207.95 151.744 208.21 150.364 208.21C148.704 208.21 147.224 207.86 145.924 207.16C144.644 206.46 143.634 205.46 142.894 204.16C142.174 202.86 141.814 201.33 141.814 199.57C141.814 197.81 142.174 196.29 142.894 195.01C143.614 193.71 144.614 192.71 145.894 192.01C147.194 191.31 148.684 190.96 150.364 190.96C152.024 190.96 153.494 191.3 154.774 191.98C156.054 192.66 157.054 193.64 157.774 194.92C158.494 196.18 158.854 197.67 158.854 199.39ZM152.854 197.92C152.854 197.2 152.614 196.64 152.134 196.24C151.654 195.82 151.054 195.61 150.334 195.61C149.614 195.61 149.024 195.81 148.564 196.21C148.104 196.59 147.804 197.16 147.664 197.92H152.854ZM164.2 189.61C163.16 189.61 162.32 189.33 161.68 188.77C161.06 188.19 160.75 187.47 160.75 186.61C160.75 185.73 161.06 185 161.68 184.42C162.32 183.84 163.16 183.55 164.2 183.55C165.22 183.55 166.04 183.84 166.66 184.42C167.3 185 167.62 185.73 167.62 186.61C167.62 187.47 167.3 188.19 166.66 188.77C166.04 189.33 165.22 189.61 164.2 189.61ZM167.14 209.65C167.14 213.91 165 216.04 160.72 216.04H158.59V211.03H159.85C160.35 211.03 160.71 210.93 160.93 210.73C161.15 210.53 161.26 210.2 161.26 209.74V191.17H167.14V209.65ZM178.289 208.21C176.609 208.21 175.099 207.86 173.759 207.16C172.439 206.46 171.399 205.46 170.639 204.16C169.879 202.86 169.499 201.33 169.499 199.57C169.499 197.83 169.879 196.31 170.639 195.01C171.419 193.71 172.469 192.71 173.789 192.01C175.129 191.31 176.639 190.96 178.319 190.96C179.999 190.96 181.499 191.31 182.819 192.01C184.159 192.71 185.209 193.71 185.969 195.01C186.749 196.31 187.139 197.83 187.139 199.57C187.139 201.31 186.749 202.84 185.969 204.16C185.209 205.46 184.159 206.46 182.819 207.16C181.479 207.86 179.969 208.21 178.289 208.21ZM178.289 203.11C179.109 203.11 179.789 202.81 180.329 202.21C180.889 201.59 181.169 200.71 181.169 199.57C181.169 198.43 180.889 197.56 180.329 196.96C179.789 196.36 179.119 196.06 178.319 196.06C177.519 196.06 176.849 196.36 176.309 196.96C175.769 197.56 175.499 198.43 175.499 199.57C175.499 200.73 175.759 201.61 176.279 202.21C176.799 202.81 177.469 203.11 178.289 203.11Z" fill="url(#paint0_linear_1_750)"/>
<path d="M74 84H44.5V154.5C44.5 169 60 174.5 72.5 174.5H118C131.5 174.5 141.5 170.5 141.5 156.5C141.5 142.5 143 97 143 97H112V135C112.797 154.091 74.8506 154.888 74 135V84Z" fill="#9D8F28"/>
<path fill-rule="evenodd" clip-rule="evenodd" d="M176.271 3.009C173.543 6.708 164.359 13.845 156.99 17.993C153.965 19.696 143.057 24.477 132.75 28.618C108.757 38.257 101.669 41.867 95.052 47.816C87.71 54.417 85.0121 60.438 85.0001 70.25C84.9901 77.853 86.4521 84.428 89.9851 92.669L91.8871 97.108L97.6231 91.597C103.231 86.208 107.943 83.561 129.318 73.786C147.721 65.371 164.268 51.663 171.385 38.937C176.411 29.95 179.151 18.564 178.782 8.205L178.49 0L176.271 3.009ZM101.056 61.217C103.437 62.492 103.648 67.381 101.419 69.611C96.4831 74.546 88.958 67.189 93.645 62.011C95.501 59.96 98.1721 59.674 101.056 61.217Z" fill="#009338"/>
<defs>
<linearGradient id="paint0_linear_1_750" x1="94" y1="181" x2="94" y2="225.741" gradientUnits="userSpaceOnUse">
<stop stop-color="#056103"/>
<stop offset="1" stop-color="#004710"/>
</linearGradient>
</defs>
</svg>
