<svg width="62" height="73" viewBox="0 0 62 73" fill="none" xmlns="http://www.w3.org/2000/svg">
<path d="M2.45367 62.2833V66.3734C2.45367 66.7533 2.53941 67.0467 2.7109 67.2534C2.88899 67.46 3.15612 67.5634 3.51229 67.5634C3.86846 67.5634 4.13558 67.46 4.31367 67.2534C4.49835 67.04 4.59069 66.7467 4.59069 66.3734V62.2833H6.52984V66.3734C6.52984 67.02 6.39463 67.5734 6.1242 68.0334C5.85378 68.4867 5.48441 68.83 5.01612 69.0634C4.55441 69.29 4.03995 69.4033 3.47271 69.4033C2.90548 69.4033 2.39761 69.29 1.94909 69.0634C1.50718 68.83 1.15761 68.4867 0.900372 68.0334C0.649733 67.58 0.524414 67.0267 0.524414 66.3734V62.2833H2.45367Z" fill="#FDFCFC"/>
<path d="M10.5953 65.3534H9.72463V69.3334H7.77558V65.3534H7.17207V63.7233H7.77558V63.6733C7.77558 62.9533 7.98335 62.4033 8.39888 62.0234C8.82101 61.6367 9.42452 61.4433 10.2094 61.4433C10.3677 61.4433 10.4897 61.4467 10.5755 61.4533V63.1233C10.5227 63.1167 10.4502 63.1133 10.3578 63.1133C10.1468 63.1133 9.99176 63.1633 9.89282 63.2633C9.79388 63.3567 9.73782 63.51 9.72463 63.7233H10.5953V65.3534Z" fill="#FDFCFC"/>
<path d="M13.2274 64.7134C13.4451 64.3933 13.7089 64.14 14.0189 63.9533C14.3289 63.7667 14.662 63.6733 15.0182 63.6733V65.7634H14.474C14.0519 65.7634 13.7386 65.8467 13.5341 66.0134C13.3297 66.18 13.2274 66.47 13.2274 66.8834V69.3334H11.2883V63.7233H13.2274V64.7134Z" fill="#FDFCFC"/>
<path d="M15.3968 66.5233C15.3968 65.9433 15.499 65.4367 15.7035 65.0034C15.9145 64.57 16.1981 64.2367 16.5543 64.0033C16.9171 63.77 17.3194 63.6533 17.7613 63.6533C18.1439 63.6533 18.4737 63.73 18.7507 63.8834C19.0277 64.0367 19.2421 64.2434 19.3938 64.5034V63.7233H21.3329V69.3334H19.3938V68.5533C19.2421 68.8134 19.0244 69.02 18.7408 69.1734C18.4638 69.3267 18.1373 69.4033 17.7613 69.4033C17.3194 69.4033 16.9171 69.2867 16.5543 69.0533C16.1981 68.82 15.9145 68.4867 15.7035 68.0533C15.499 67.6133 15.3968 67.1034 15.3968 66.5233ZM19.3938 66.5233C19.3938 66.1634 19.2948 65.88 19.097 65.6733C18.9057 65.4667 18.6683 65.3633 18.3846 65.3633C18.0944 65.3633 17.8537 65.4667 17.6624 65.6733C17.4711 65.8733 17.3755 66.1567 17.3755 66.5233C17.3755 66.8833 17.4711 67.17 17.6624 67.3834C17.8537 67.59 18.0944 67.6934 18.3846 67.6934C18.6683 67.6934 18.9057 67.59 19.097 67.3834C19.2948 67.1767 19.3938 66.89 19.3938 66.5233Z" fill="#FDFCFC"/>
<path d="M32.4741 62.2833V69.3334H30.5349V65.4433L29.2191 69.3334H27.5965L26.2708 65.4134V69.3334H24.3316V62.2833H26.6764L28.4276 66.8633L30.1392 62.2833H32.4741Z" fill="#FDFCFC"/>
<path d="M33.2613 66.5233C33.2613 65.9433 33.3635 65.4367 33.568 65.0034C33.7791 64.57 34.0627 64.2367 34.4189 64.0033C34.7816 63.77 35.184 63.6533 35.6259 63.6533C36.0084 63.6533 36.3382 63.73 36.6152 63.8834C36.8923 64.0367 37.1066 64.2434 37.2583 64.5034V63.7233H39.1975V69.3334H37.2583V68.5533C37.1066 68.8134 36.889 69.02 36.6054 69.1734C36.3283 69.3267 36.0018 69.4033 35.6259 69.4033C35.184 69.4033 34.7816 69.2867 34.4189 69.0533C34.0627 68.82 33.7791 68.4867 33.568 68.0533C33.3635 67.6133 33.2613 67.1034 33.2613 66.5233ZM37.2583 66.5233C37.2583 66.1634 37.1594 65.88 36.9615 65.6733C36.7702 65.4667 36.5328 65.3633 36.2492 65.3633C35.959 65.3633 35.7182 65.4667 35.5269 65.6733C35.3357 65.8733 35.24 66.1567 35.24 66.5233C35.24 66.8833 35.3357 67.17 35.5269 67.3834C35.7182 67.59 35.959 67.6934 36.2492 67.6934C36.5328 67.6934 36.7702 67.59 36.9615 67.3834C37.1594 67.1767 37.2583 66.89 37.2583 66.5233Z" fill="#FDFCFC"/>
<path d="M43.9334 63.6733C44.5732 63.6733 45.0811 63.89 45.457 64.3233C45.833 64.75 46.021 65.33 46.021 66.0633V69.3334H44.0818V66.3233C44.0818 66.0034 43.9994 65.7534 43.8345 65.5733C43.6696 65.3867 43.4486 65.2934 43.1716 65.2934C42.8814 65.2934 42.6539 65.3867 42.489 65.5733C42.3241 65.7534 42.2416 66.0034 42.2416 66.3233V69.3334H40.3025V63.7233H42.2416V64.5233C42.4131 64.27 42.644 64.0667 42.9342 63.9133C43.2244 63.7533 43.5575 63.6733 43.9334 63.6733Z" fill="#FDFCFC"/>
<path d="M52.388 66.4634C52.388 66.6167 52.3781 66.77 52.3583 66.9234H48.6878C48.7076 67.23 48.79 67.46 48.9351 67.6133C49.0868 67.76 49.2781 67.8334 49.5089 67.8334C49.8321 67.8334 50.063 67.6867 50.2015 67.3934H52.2693C52.1835 67.78 52.0153 68.1267 51.7647 68.4333C51.5206 68.7333 51.2107 68.97 50.8347 69.1434C50.4587 69.3167 50.0432 69.4033 49.5881 69.4033C49.0407 69.4033 48.5526 69.2867 48.1238 69.0533C47.7017 68.82 47.3686 68.4867 47.1246 68.0533C46.8871 67.62 46.7684 67.11 46.7684 66.5233C46.7684 65.9367 46.8871 65.43 47.1246 65.0034C47.362 64.57 47.6918 64.2367 48.1139 64.0033C48.5427 63.77 49.0341 63.6533 49.5881 63.6533C50.1355 63.6533 50.6203 63.7667 51.0425 63.9933C51.4646 64.22 51.7944 64.5467 52.0318 64.9734C52.2693 65.3934 52.388 65.89 52.388 66.4634ZM50.4093 65.9734C50.4093 65.7334 50.3301 65.5467 50.1718 65.4134C50.0135 65.2734 49.8157 65.2034 49.5782 65.2034C49.3408 65.2034 49.1462 65.27 48.9945 65.4034C48.8428 65.53 48.7438 65.72 48.6977 65.9734H50.4093Z" fill="#FDFCFC"/>
<path d="M54.1511 63.2033C53.8082 63.2033 53.5311 63.11 53.3201 62.9233C53.1156 62.73 53.0134 62.49 53.0134 62.2033C53.0134 61.91 53.1156 61.6667 53.3201 61.4734C53.5311 61.28 53.8082 61.1833 54.1511 61.1833C54.4875 61.1833 54.7579 61.28 54.9624 61.4734C55.1735 61.6667 55.279 61.91 55.279 62.2033C55.279 62.49 55.1735 62.73 54.9624 62.9233C54.7579 63.11 54.4875 63.2033 54.1511 63.2033ZM55.1207 69.8834C55.1207 71.3034 54.415 72.0134 53.0035 72.0134H52.301V70.3434H52.7166C52.8815 70.3434 53.0002 70.31 53.0727 70.2434C53.1453 70.1767 53.1816 70.0667 53.1816 69.9134V63.7233H55.1207V69.8834Z" fill="#FDFCFC"/>
<path d="M58.7976 69.4033C58.2435 69.4033 57.7456 69.2867 57.3036 69.0533C56.8683 68.82 56.5254 68.4867 56.2747 68.0533C56.0241 67.62 55.8988 67.11 55.8988 66.5233C55.8988 65.9433 56.0241 65.4367 56.2747 65.0034C56.5319 64.57 56.8782 64.2367 57.3135 64.0033C57.7555 63.77 58.2534 63.6533 58.8075 63.6533C59.3615 63.6533 59.8562 63.77 60.2915 64.0033C60.7334 64.2367 61.0797 64.57 61.3304 65.0034C61.5876 65.4367 61.7162 65.9433 61.7162 66.5233C61.7162 67.1034 61.5876 67.6133 61.3304 68.0533C61.0797 68.4867 60.7334 68.82 60.2915 69.0533C59.8496 69.2867 59.3516 69.4033 58.7976 69.4033ZM58.7976 67.7034C59.068 67.7034 59.2923 67.6033 59.4704 67.4033C59.655 67.1967 59.7474 66.9033 59.7474 66.5233C59.7474 66.1433 59.655 65.8534 59.4704 65.6533C59.2923 65.4534 59.0713 65.3534 58.8075 65.3534C58.5436 65.3534 58.3227 65.4534 58.1446 65.6533C57.9665 65.8534 57.8775 66.1433 57.8775 66.5233C57.8775 66.91 57.9632 67.2033 58.1347 67.4033C58.3062 67.6033 58.5272 67.7034 58.7976 67.7034Z" fill="#FDFCFC"/>
<path d="M24.404 28H14.6753V51.5C14.6753 56.3333 19.787 58.1667 23.9093 58.1667H38.9147C43.3668 58.1667 46.6647 56.8333 46.6647 52.1667C46.6647 47.5 47.1593 32.3333 47.1593 32.3333H36.9359V45C37.1987 51.3637 24.6845 51.6294 24.404 45V28Z" fill="#FDFCFC"/>
<path fill-rule="evenodd" clip-rule="evenodd" d="M58.1318 1.003C57.2321 2.236 54.2033 4.615 51.7731 5.99767C50.7755 6.56533 47.1782 8.159 43.7791 9.53933C35.8665 12.7523 33.529 13.9557 31.3468 15.9387C28.9255 18.139 28.0357 20.146 28.0318 23.4167C28.0285 25.951 28.5106 28.1427 29.6757 30.8897L30.303 32.3693L32.1947 30.5323C34.0441 28.736 35.5981 27.8537 42.6473 24.5953C48.7163 21.7903 54.1733 17.221 56.5204 12.979C58.1779 9.98333 59.0816 6.188 58.9599 2.735L58.8636 0L58.1318 1.003ZM33.3268 20.4057C34.112 20.8307 34.1816 22.4603 33.4465 23.2037C31.8187 24.8487 29.3371 22.3963 30.8828 20.6703C31.4948 19.9867 32.3757 19.8913 33.3268 20.4057Z" fill="#FDFCFC"/>
</svg>
